<svg version="1.1" xmlns="http://www.w3.org/2000/svg" width="162" height="56" viewBox="0 0 162 56">
    <g transform="translate(-14,-15) scale(0.35)">
    <path d="M0 0 C0.92570801 0.49862549 1.85141602 0.99725098 2.80517578 1.51098633 C16.89537275 9.4355701 22.99878982 26.0715536 27.8125 40.8125 C29.16493865 44.39777365 30.52179801 47.98103974 31.89453125 51.55859375 C36.19464156 66.80111243 24.76176467 86.93369767 17.75 100.125 C17.28045898 101.03064697 16.81091797 101.93629395 16.32714844 102.86938477 C13.04529647 108.75771101 9.75563076 111.73741306 3.8125 114.8125 C2.90886719 115.39773437 2.00523437 115.98296875 1.07421875 116.5859375 C-7.1663754 121.71286254 -15.83258795 124.90217031 -24.97851562 128.04443359 C-26.93867399 128.72598291 -28.88465002 129.44802077 -30.828125 130.17578125 C-32.36726563 130.73845703 -32.36726563 130.73845703 -33.9375 131.3125 C-34.79859375 131.6321875 -35.6596875 131.951875 -36.546875 132.28125 C-50.35645997 135.0595097 -69.8368116 123.87482755 -81.75 117.875 C-82.70648438 117.40989014 -83.66296875 116.94478027 -84.6484375 116.46557617 C-91.21858219 113.0236522 -94.68976221 109.31346543 -98.1875 102.8125 C-98.56366455 102.13872314 -98.9398291 101.46494629 -99.32739258 100.77075195 C-100.36888603 98.84604892 -101.3507843 96.90316145 -102.3125 94.9375 C-102.65450439 94.24479004 -102.99650879 93.55208008 -103.34887695 92.83837891 C-106.04654833 87.28582769 -108.21622238 81.66089625 -110.1875 75.8125 C-110.85458984 74.04326172 -110.85458984 74.04326172 -111.53515625 72.23828125 C-111.99792969 71.00464844 -112.46070313 69.77101563 -112.9375 68.5 C-113.36546875 67.36949219 -113.7934375 66.23898438 -114.234375 65.07421875 C-118.52356964 50.39603218 -106.90757419 30.24875225 -100.1875 17.5625 C-99.72633789 16.6653125 -99.26517578 15.768125 -98.79003906 14.84375 C-95.31607455 8.59109337 -91.39269953 5.27536946 -85.1875 1.8125 C-84.24261719 1.24402344 -83.29773438 0.67554687 -82.32421875 0.08984375 C-72.71501112 -5.16686792 -62.81345295 -9.10384902 -52.4375 -12.5625 C-51.64537109 -12.83771484 -50.85324219 -13.11292969 -50.03710938 -13.39648438 C-33.8102759 -18.62437633 -14.01131948 -7.59249671 0 0 Z M-69.1875 30.8125 C-75.39800478 38.30366848 -79.80075946 48.17492395 -81.1875 57.8125 C-80.7516784 61.1413935 -79.57397942 63.78071788 -78.1875 66.8125 C-77.743471 68.41824238 -77.31818138 70.02926476 -76.91015625 71.64453125 C-73.75719591 81.8762066 -69.27670982 87.83664686 -59.75952148 93.00219727 C-51.35779995 97.02612801 -43.47710573 99.99139459 -34.16015625 97.375 C-28.14522896 95.1187923 -22.67410715 92.12359236 -17.1875 88.8125 C-16.49438721 88.54163574 -15.80127441 88.27077148 -15.0871582 87.99169922 C-10.63950725 85.23085176 -8.9642761 78.66237715 -6.875 74.0625 C-6.31232422 72.88171875 -5.74964844 71.7009375 -5.16992188 70.484375 C-4.64333984 69.3396875 -4.11675781 68.195 -3.57421875 67.015625 C-3.09170654 65.97051758 -2.60919434 64.92541016 -2.11206055 63.84863281 C0.47924673 55.33912732 -5.25569769 44.3125673 -8.984375 36.7421875 C-15.39926227 26.07197973 -28.80321068 22.20640245 -40.1875 18.8125 C-48.88405725 18.8125 -62.4050382 25.35780238 -69.1875 30.8125 Z " fill="#7A30B3" transform="translate(166.1875,66.1875)"/>
    <path d="M0 0 C0.92570801 0.49862549 1.85141602 0.99725098 2.80517578 1.51098633 C16.88884335 9.43189785 23.0096666 26.07276991 27.8125 40.8125 C28.28816555 42.11942574 28.77010536 43.42408242 29.2578125 44.7265625 C29.61601074 45.68925049 29.61601074 45.68925049 29.98144531 46.67138672 C30.65058634 48.4636296 31.32133995 50.25527018 31.9921875 52.046875 C32.8125 54.8125 32.8125 54.8125 31.8125 56.8125 C28.8125 56.8125 28.8125 56.8125 27.38671875 55.47265625 C26.86722656 54.92480469 26.34773438 54.37695312 25.8125 53.8125 C23.72958539 52.47035426 21.60173086 51.23654163 19.45703125 49.99609375 C18.91433594 49.60550781 18.37164062 49.21492188 17.8125 48.8125 C17.8125 48.1525 17.8125 47.4925 17.8125 46.8125 C16.92820312 46.54953125 16.04390625 46.2865625 15.1328125 46.015625 C11.90316109 44.84535131 9.51775509 43.48395758 6.6875 41.5625 C0.95801882 37.80326682 -5.00728 34.75700272 -11.1875 31.8125 C-11.5175 32.8025 -11.8475 33.7925 -12.1875 34.8125 C-12.31016235 33.86721436 -12.31016235 33.86721436 -12.43530273 32.90283203 C-12.96705243 30.66703008 -12.96705243 30.66703008 -14.95727539 29.93701172 C-16.07863892 29.65494873 -16.07863892 29.65494873 -17.22265625 29.3671875 C-20.60415419 28.38999925 -23.32958483 27.25648453 -26.30859375 25.3828125 C-32.26003143 21.88626531 -37.53568788 19.04119845 -44.56738281 20.52636719 C-51.63747994 22.93728774 -58.29373823 26.15944468 -64.87524414 29.67578125 C-67.1875 30.8125 -67.1875 30.8125 -69.1875 30.8125 C-69.34968018 31.339646 -69.51186035 31.86679199 -69.67895508 32.40991211 C-71.65741443 38.60989476 -74.1571963 44.46691954 -76.875 50.375 C-77.29072266 51.28830078 -77.70644531 52.20160156 -78.13476562 53.14257812 C-79.14832902 55.36775752 -80.16595216 57.59097781 -81.1875 59.8125 C-86.37074092 49.61915641 -88.7111553 39.03484584 -90.5 27.8125 C-90.67128418 26.73846924 -90.84256836 25.66443848 -91.01904297 24.55786133 C-91.81670672 19.25352186 -92.39320454 14.17605551 -92.1875 8.8125 C-92.8475 8.4825 -93.5075 8.1525 -94.1875 7.8125 C-81.14422324 -1.2694853 -67.47842822 -7.54885726 -52.4375 -12.5625 C-51.64537109 -12.83771484 -50.85324219 -13.11292969 -50.03710938 -13.39648438 C-33.8102759 -18.62437633 -14.01131948 -7.59249671 0 0 Z " fill="#FA9292" transform="translate(166.1875,66.1875)"/>
    <path d="M0 0 C-0.96099609 1.30710938 -0.96099609 1.30710938 -1.94140625 2.640625 C-7.44775994 10.19932749 -12.46829519 17.8069178 -17 26 C-16.27554688 26.19335938 -15.55109375 26.38671875 -14.8046875 26.5859375 C-9.81954385 27.92860286 -4.87405309 29.28749486 0 31 C-2.7599874 34.02030349 -5.14992215 35.77515291 -8.9140625 37.359375 C-9.83960938 37.75253906 -10.76515625 38.14570312 -11.71875 38.55078125 C-12.6778125 38.94652344 -13.636875 39.34226563 -14.625 39.75 C-15.59179688 40.16121094 -16.55859375 40.57242188 -17.5546875 40.99609375 C-24.70019207 44 -24.70019207 44 -27 44 C-27.16218018 44.527146 -27.32436035 45.05429199 -27.49145508 45.59741211 C-29.46991443 51.79739476 -31.9696963 57.65441954 -34.6875 63.5625 C-35.10322266 64.47580078 -35.51894531 65.38910156 -35.94726562 66.33007812 C-36.96082902 68.55525752 -37.97845216 70.77847781 -39 73 C-44.18324092 62.80665641 -46.5236553 52.22234584 -48.3125 41 C-48.48378418 39.92596924 -48.65506836 38.85193848 -48.83154297 37.74536133 C-49.62920672 32.44102186 -50.20570454 27.36355551 -50 22 C-50.66 21.67 -51.32 21.34 -52 21 C-39.36427157 12.20178909 -26.12372914 5.87576358 -11.5 1.125 C-10.81719971 0.8973999 -10.13439941 0.6697998 -9.4309082 0.43530273 C-5.97878182 -0.64668138 -3.43268795 -1.41861084 0 0 Z " fill="#FB9292" transform="translate(124,53)"/>
    <path d="M0 0 C6.17969456 1.67018772 11.47369786 4.86345013 17 8 C18.67255859 8.93005859 18.67255859 8.93005859 20.37890625 9.87890625 C22.01666016 10.80509766 22.01666016 10.80509766 23.6875 11.75 C25.20923828 12.60851562 25.20923828 12.60851562 26.76171875 13.484375 C27.50035156 13.98453125 28.23898438 14.4846875 29 15 C29 15.66 29 16.32 29 17 C29.515625 17.2475 30.03125 17.495 30.5625 17.75 C33.77184151 19.39581616 36.87585664 21.1976096 40 23 C40 23.66 40 24.32 40 25 C40.99 24.67 41.98 24.34 43 24 C43.33 24.33 43.66 24.66 44 25 C42.97911221 40.05376912 35.97347626 54.97488971 29 68.125 C28.28976685 69.50099365 28.28976685 69.50099365 27.56518555 70.90478516 C24.39130495 76.64133626 21.11015161 80.36981368 15 83 C14.34 83 13.68 83 13 83 C13 81 13 81 14.125 79.4375 C16.63946978 77.50973984 18.89545967 77.34494893 22 77 C21.152874 71.63486869 20.08318169 66.3212615 19 61 C18.34 61 17.68 61 17 61 C17 58.03 17 55.06 17 52 C16.67 52 16.34 52 16 52 C15.67 50.02 15.34 48.04 15 46 C10.94568308 44.84162374 8.78187881 45.16308743 5 47 C5 47.99 5 48.98 5 50 C5.66 50.33 6.32 50.66 7 51 C5.87627812 54.37116564 5.52837401 54.55882121 2.5625 56.125 C1.94503906 56.45757812 1.32757813 56.79015625 0.69140625 57.1328125 C-0.53564293 57.76192316 -1.76665336 58.38332668 -3 59 C-3 58.34 -3 57.68 -3 57 C-3.99 56.67 -4.98 56.34 -6 56 C-4.515 55.505 -4.515 55.505 -3 55 C-0.89722076 51.53140015 0.72365273 47.83343094 2.40820312 44.14575195 C3.24264326 42.3285214 4.10560641 40.52447705 4.96875 38.72070312 C5.76539063 36.9969043 5.76539063 36.9969043 6.578125 35.23828125 C7.06700195 34.18680908 7.55587891 33.13533691 8.05957031 32.05200195 C9.58953242 27.08677446 8.33196563 23.21650923 6.15234375 18.65234375 C5.79462891 17.88212891 5.43691406 17.11191406 5.06835938 16.31835938 C4.3122198 14.72641786 3.55439662 13.13527497 2.79492188 11.54492188 C-0.549 4.331 -0.549 4.331 0 0 Z " fill="#BA5DA6" transform="translate(155,98)"/>
    <path d="M0 0 C15.23473035 1.3379447 29.88028001 7.97654288 43.1875 15.1875 C44.11320801 15.68612549 45.03891602 16.18475098 45.99267578 16.69848633 C51.85932 19.99799404 55.79844575 22.81588123 58.25 29.3125 C58.4975 30.199375 58.745 31.08625 59 32 C58.01 32.495 58.01 32.495 57 33 C56.32845067 31.71086513 55.66291141 30.41859796 55 29.125 C54.443125 28.04605469 54.443125 28.04605469 53.875 26.9453125 C53 25 53 25 53 23 C52.11570312 23.29132813 51.23140625 23.58265625 50.3203125 23.8828125 C43.52459629 25.8249333 36.39012541 26.4207984 29.3984375 27.32421875 C21.39028142 28.43345659 13.52392409 29.94700871 6 33 C5.67 33.66 5.34 34.32 5 35 C2.625 35.125 2.625 35.125 0 35 C-0.66 34.34 -1.32 33.68 -2 33 C-3.97928445 32.25495685 -5.98348412 31.5749323 -8 30.9375 C-13.85430464 29.07284768 -13.85430464 29.07284768 -16 28 C-14.72464433 23.54926899 -13.07367513 20.4054554 -10.25 16.75 C-3.62737664 9.00105977 -3.62737664 9.00105977 0 0 Z " fill="#FCBFAB" transform="translate(123,51)"/>
    <path d="M0 0 C0.66 0 1.32 0 2 0 C2.12528076 0.89082275 2.25056152 1.78164551 2.37963867 2.69946289 C2.86252626 6.08405593 3.35806257 9.46633678 3.86157227 12.84790039 C4.07480027 14.29673274 4.28332593 15.74626692 4.48657227 17.1965332 C5.79660242 26.51553786 7.75302888 35.07990793 11.00512695 43.92358398 C12 47 12 47 12 51 C12.66 51 13.32 51 14 51 C14.495 52.98 14.495 52.98 15 55 C12.525 55.495 12.525 55.495 10 56 C9.01 59.63 8.02 63.26 7 67 C2.92278489 67 2.04792109 66.72529212 -1.1875 64.625 C-1.88230469 64.18414062 -2.57710937 63.74328125 -3.29296875 63.2890625 C-5 62 -5 62 -6 60 C-8.01669827 58.86649466 -8.01669827 58.86649466 -10 58 C-10 57.34 -10 56.68 -10 56 C-12.97 55.01 -15.94 54.02 -19 53 C-19.33 53.66 -19.66 54.32 -20 55 C-22.73268037 49.53463926 -20.14781466 43.62476965 -18.35742188 38.23999023 C-17.97134766 37.12954346 -17.58527344 36.01909668 -17.1875 34.875 C-16.79240234 33.73168213 -16.39730469 32.58836426 -15.99023438 31.41040039 C-7.34998498 7.34998498 -7.34998498 7.34998498 0 0 Z " fill="#A34BA9" transform="translate(72,75)"/>
    <path d="M0 0 C0.33 0.99 0.66 1.98 1 3 C2.75739359 3.87982834 2.75739359 3.87982834 4.93359375 4.42578125 C10.1392713 6.00697873 15.06640092 8.04409985 20.0625 10.1875 C21.3609082 10.73954102 21.3609082 10.73954102 22.68554688 11.30273438 C24.79170883 12.19872592 26.89647192 13.09784655 29 14 C25.71754385 16.81468599 22.56166518 17.96291853 18.4375 19.1875 C17.30183594 19.53167969 16.16617188 19.87585938 14.99609375 20.23046875 C12 21 12 21 9 21 C8.01 18.69 7.02 16.38 6 14 C5.01 14 4.02 14 3 14 C2.67 10.7 2.34 7.4 2 4 C1.34 4 0.68 4 0 4 C0 2.68 0 1.36 0 0 Z " fill="#CE42AE" transform="translate(96,150)"/>
    <path d="M0 0 C-0.55969856 4.17229835 -1.51309575 7.58514274 -3.28515625 11.3984375 C-3.73310547 12.37167969 -4.18105469 13.34492187 -4.64257812 14.34765625 C-5.11115234 15.34667969 -5.57972656 16.34570312 -6.0625 17.375 C-6.53494141 18.39722656 -7.00738281 19.41945313 -7.49414062 20.47265625 C-8.65632219 22.98484671 -9.82509244 25.49374253 -11 28 C-12.94375634 24.24771413 -14.3050841 20.38079128 -15.625 16.375 C-15.85445313 15.694375 -16.08390625 15.01375 -16.3203125 14.3125 C-18 9.25344122 -18 9.25344122 -18 7 C-17.25234375 6.66226563 -16.5046875 6.32453125 -15.734375 5.9765625 C-14.74953125 5.53054687 -13.7646875 5.08453125 -12.75 4.625 C-11.77546875 4.18414062 -10.8009375 3.74328125 -9.796875 3.2890625 C-8.11936402 2.515908 -6.45614027 1.70850684 -4.828125 0.8359375 C-3 0 -3 0 0 0 Z " fill="#DC74B5" transform="translate(96,98)"/>
    <path d="M0 0 C0.99 0 1.98 0 3 0 C8.74031891 15.74487472 8.74031891 15.74487472 8 23 C7.67 23 7.34 23 7 23 C6.67 21.02 6.34 19.04 6 17 C1.94568308 15.84162374 -0.21812119 16.16308743 -4 18 C-4 18.99 -4 19.98 -4 21 C-3.34 21.33 -2.68 21.66 -2 22 C-3.12372188 25.37116564 -3.47162599 25.55882121 -6.4375 27.125 C-7.05496094 27.45757812 -7.67242187 27.79015625 -8.30859375 28.1328125 C-9.53564293 28.76192316 -10.76665336 29.38332668 -12 30 C-12 29.34 -12 28.68 -12 28 C-12.99 27.67 -13.98 27.34 -15 27 C-14.01 26.67 -13.02 26.34 -12 26 C-10.45511984 23.41864729 -10.45511984 23.41864729 -9.08203125 20.21484375 C-8.55029297 19.04501953 -8.01855469 17.87519531 -7.47070312 16.66992188 C-6.91774192 15.42588205 -6.3650105 14.18174006 -5.8125 12.9375 C-5.24900886 11.68901849 -4.68456709 10.44096558 -4.11914062 9.19335938 C-2.73666326 6.13300351 -1.36412478 3.06856979 0 0 Z " fill="#8442C0" transform="translate(164,127)"/>
    <path d="M0 0 C5.68502535 1.64566523 10.76681636 4.29032784 16 7 C15.48914188 13.43681228 14.27057103 18.95942424 12 25 C11.01 25 10.02 25 9 25 C7.48454537 21.7778676 5.99044289 18.54626873 4.5 15.3125 C4.07074219 14.40048828 3.64148438 13.48847656 3.19921875 12.54882812 C2.79316406 11.66259766 2.38710937 10.77636719 1.96875 9.86328125 C1.59169922 9.05157471 1.21464844 8.23986816 0.82617188 7.40356445 C-0.07133272 4.79247322 -0.15359499 2.74124384 0 0 Z " fill="#5F148C" transform="translate(155,98)"/>
    <path d="M0 0 C4.04704581 0.72404774 7.89070402 1.83446287 11.8125 3.0625 C13.55466797 3.60583984 13.55466797 3.60583984 15.33203125 4.16015625 C16.65267578 4.57587891 16.65267578 4.57587891 18 5 C14.81108145 8.63995666 11.61412544 10.35081942 7.1875 12.25 C6.00542969 12.77078125 4.82335937 13.2915625 3.60546875 13.828125 C-0.15070865 15.04898439 -3.07858047 15.22092504 -7 15 C-6.42176904 10.93774452 -5.10882263 8.15237654 -2.9375 4.6875 C-2.38964844 3.80449219 -1.84179688 2.92148438 -1.27734375 2.01171875 C-0.64505859 1.01591797 -0.64505859 1.01591797 0 0 Z " fill="#E3264A" transform="translate(106,79)"/>
    <path d="M0 0 C-1.54545146 5.47932789 -4.15543212 10.11429181 -7 15 C-13.14154225 14.41509121 -19.00679849 13.45933748 -25 12 C-24.75488281 10.13378906 -24.75488281 10.13378906 -24 8 C-22.22167969 6.81152344 -22.22167969 6.81152344 -19.921875 5.859375 C-19.09042969 5.51132813 -18.25898438 5.16328125 -17.40234375 4.8046875 C-16.08943359 4.28261719 -16.08943359 4.28261719 -14.75 3.75 C-13.89019531 3.38648438 -13.03039062 3.02296875 -12.14453125 2.6484375 C-7.87337675 0.89785646 -4.67193956 -0.21245465 0 0 Z " fill="#5A1EB6" transform="translate(152,155)"/>
    <path d="M0 0 C1.01144568 2.22457845 2.00920265 4.45374291 3 6.6875 C3.28617188 7.31333984 3.57234375 7.93917969 3.8671875 8.58398438 C5.45310502 12.19005873 6.45518976 15.05265134 6 19 C5.67 19.66 5.34 20.32 5 21 C-0.31027254 19.53967505 -4.46330032 17.01679014 -9 14 C-8.09068323 5.05838509 -8.09068323 5.05838509 -6 1 C-4 0 -4 0 0 0 Z " fill="#55098F" transform="translate(88,130)"/>
    <path d="M0 0 C0.84384675 1.41042956 1.67469496 2.82864132 2.5 4.25 C2.9640625 5.03890625 3.428125 5.8278125 3.90625 6.640625 C5 9 5 9 5 13 C-11.66225166 11.17723116 -11.66225166 11.17723116 -17 8 C-17.33 7.01 -17.66 6.02 -18 5 C-15.56427941 4.16112944 -13.12666783 3.32873471 -10.6875 2.5 C-9.65206055 2.14228516 -9.65206055 2.14228516 -8.59570312 1.77734375 C-5.61068511 0.76791737 -3.17341086 0 0 0 Z " fill="#E95767" transform="translate(145,79)"/>
    <path d="M0 0 C0.66 0 1.32 0 2 0 C2.66 5.61 3.32 11.22 4 17 C2 14 2 14 1 11 C-1.62551393 13.48359426 -3.82148316 15.70247194 -5.6875 18.8125 C-6.120625 19.534375 -6.55375 20.25625 -7 21 C-7.66 21 -8.32 21 -9 21 C-9.81283457 18.67415685 -10.16243856 17.4445717 -9.30322266 15.09301758 C-8.9272998 14.45001709 -8.55137695 13.8070166 -8.1640625 13.14453125 C-7.55691406 12.08782227 -7.55691406 12.08782227 -6.9375 11.00976562 C-6.504375 10.28466797 -6.07125 9.55957031 -5.625 8.8125 C-5.19960937 8.07580078 -4.77421875 7.33910156 -4.3359375 6.58007812 C-1.21880151 1.21880151 -1.21880151 1.21880151 0 0 Z " fill="#B55DA1" transform="translate(72,75)"/>
    <path d="M0 0 C2.08496094 3.69091797 2.08496094 3.69091797 1.3203125 6.47265625 C0.92585937 7.32730469 0.53140625 8.18195313 0.125 9.0625 C-1.61642439 12.8682569 -1.61642439 12.8682569 -2 17 C-1.34 17.33 -0.68 17.66 0 18 C-1.12372188 21.37116564 -1.47162599 21.55882121 -4.4375 23.125 C-5.05496094 23.45757812 -5.67242187 23.79015625 -6.30859375 24.1328125 C-7.53564293 24.76192316 -8.76665336 25.38332668 -10 26 C-10 25.34 -10 24.68 -10 24 C-10.99 23.67 -11.98 23.34 -13 23 C-12.01 22.67 -11.02 22.34 -10 22 C-8.65073311 19.80924795 -8.65073311 19.80924795 -7.51953125 17.08984375 C-7.07802734 16.10048828 -6.63652344 15.11113281 -6.18164062 14.09179688 C-5.72982422 13.05087891 -5.27800781 12.00996094 -4.8125 10.9375 C-4.11737305 9.37032227 -4.11737305 9.37032227 -3.40820312 7.77148438 C-2.2625992 5.18501779 -1.12705235 2.59459147 0 0 Z " fill="#8D54C2" transform="translate(162,131)"/>
    <path d="M0 0 C0.66 0 1.32 0 2 0 C1.82859687 6.73146836 0.54415195 11.87771167 -4 17 C-6.72715104 19.08201854 -9.46033964 21 -13 21 C-13 19 -13 19 -11.875 17.4375 C-9.36053022 15.50973984 -7.10454033 15.34494893 -4 15 C-4.144375 14.175 -4.28875 13.35 -4.4375 12.5 C-5.05253152 8.67313722 -5.53560637 4.84783293 -6 1 C-4.7934375 1.0309375 -4.7934375 1.0309375 -3.5625 1.0625 C-1.06645115 1.29633621 -1.06645115 1.29633621 0 0 Z " fill="#AB68B6" transform="translate(181,160)"/>
    <path d="M0 0 C3.82097239 0.53069061 6.06171403 1.49701566 9 4 C7.68 4 6.36 4 5 4 C5.33 5.65 5.66 7.3 6 9 C6.99 8.67 7.98 8.34 9 8 C9.3125 10.1875 9.3125 10.1875 9 13 C6.5 15.8125 6.5 15.8125 4 18 C3.32451422 15.94037148 2.65995688 13.87715678 2 11.8125 C1.62875 10.66394531 1.2575 9.51539063 0.875 8.33203125 C0.09369447 5.35679188 -0.18363306 3.04716104 0 0 Z " fill="#864BAF" transform="translate(53,128)"/>
    <path d="M0 0 C2.54661734 3.81992601 3.74731218 7.72838183 5.1875 12.0625 C5.47302734 12.89072266 5.75855469 13.71894531 6.05273438 14.57226562 C6.31763672 15.36439453 6.58253906 16.15652344 6.85546875 16.97265625 C7.09934326 17.69718994 7.34321777 18.42172363 7.59448242 19.16821289 C8 21 8 21 7 23 C4 23 4 23 2.57421875 21.66015625 C2.05472656 21.11230469 1.53523437 20.56445312 1 20 C-1.08291461 18.65785426 -3.21076914 17.42404163 -5.35546875 16.18359375 C-5.89816406 15.79300781 -6.44085938 15.40242188 -7 15 C-7 14.34 -7 13.68 -7 13 C-4.525 13.495 -4.525 13.495 -2 14 C-2 14.66 -2 15.32 -2 16 C-0.68 15.67 0.64 15.34 2 15 C1.855625 14.25234375 1.71125 13.5046875 1.5625 12.734375 C1.376875 11.74953125 1.19125 10.7646875 1 9.75 C0.814375 8.77546875 0.62875 7.8009375 0.4375 6.796875 C0 4 0 4 0 0 Z " fill="#F2A4AD" transform="translate(191,100)"/>
    <path d="M0 0 C-3.08183474 2.82501518 -5.96147406 3.51659503 -9.98828125 4.40234375 C-13.04350437 5.31001198 -15.38118319 7.21697579 -18 9 C-22.47737122 10.59906115 -26.25466449 11.23147978 -31 11 C-28.37837965 7.78128462 -25.43190651 6.87818449 -21.5625 5.5625 C-19.70044922 4.92634766 -19.70044922 4.92634766 -17.80078125 4.27734375 C-17.16865723 4.06577637 -16.5365332 3.85420898 -15.88525391 3.63623047 C-14.07768361 3.02621646 -12.27881085 2.39061117 -10.48046875 1.75390625 C-9.41441406 1.38136719 -8.34835938 1.00882813 -7.25 0.625 C-6.28578125 0.28726563 -5.3215625 -0.05046875 -4.328125 -0.3984375 C-2 -1 -2 -1 0 0 Z " fill="#F7979A" transform="translate(122,53)"/>
    <path d="M0 0 C-0.928125 0.721875 -1.85625 1.44375 -2.8125 2.1875 C-5.09715435 4.05143712 -6.07188007 5.13477512 -7.5 7.8125 C-7.995 8.534375 -8.49 9.25625 -9 10 C-12.1875 10.3125 -12.1875 10.3125 -15 10 C-15 9.34 -15 8.68 -15 8 C-16.98 8 -18.96 8 -21 8 C-18.0165614 5.0165614 -14.36637984 3.89650948 -10.5 2.3125 C-9.71496094 1.97927734 -8.92992187 1.64605469 -8.12109375 1.30273438 C-7.36957031 0.99271484 -6.61804688 0.68269531 -5.84375 0.36328125 C-5.15474609 0.07751221 -4.46574219 -0.20825684 -3.75585938 -0.50268555 C-2 -1 -2 -1 0 0 Z " fill="#754EC3" transform="translate(149,156)"/>
    <path d="M0 0 C0.66 0.66 1.32 1.32 2 2 C4.57061311 2.64767793 4.57061311 2.64767793 7 3 C7 2.34 7 1.68 7 1 C10.3 0.34 13.6 -0.32 17 -1 C17.33 -0.34 17.66 0.32 18 1 C5.82107316 5.65958941 -0.90517356 4.26993052 -13 0 C-13 -0.33 -13 -0.66 -13 -1 C-11.58566794 -1.2236337 -10.16832382 -1.42826476 -8.75 -1.625 C-7.56664063 -1.79902344 -7.56664063 -1.79902344 -6.359375 -1.9765625 C-3.62890313 -2.00368639 -2.2938187 -1.44098867 0 0 Z " fill="#7F4EB5" transform="translate(121,194)"/>
    <path d="M0 0 C0.66 0.33 1.32 0.66 2 1 C2 2.32 2 3.64 2 5 C1.34 5 0.68 5 0 5 C0.020625 5.969375 0.04125 6.93875 0.0625 7.9375 C0 11 0 11 -1 12 C-1.53487482 14.50806849 -1.96405456 17.02807921 -2.40234375 19.5546875 C-3 22 -3 22 -5 25 C-4.34 25.33 -3.68 25.66 -3 26 C-3.66 26 -4.32 26 -5 26 C-5.33 26.66 -5.66 27.32 -6 28 C-7.74146947 24.51706107 -7.37539247 21.34330531 -6.33984375 17.63769531 C-5.43833042 14.9483153 -4.48303215 12.28563915 -3.5 9.625 C-2.99919922 8.23474609 -2.99919922 8.23474609 -2.48828125 6.81640625 C-1.66727948 4.54105849 -0.83768062 2.26924879 0 0 Z " fill="#AB6FB1" transform="translate(58,102)"/>
    <path d="M0 0 C0.66 0.33 1.32 0.66 2 1 C1.50387003 9.10345611 -1.320085 16.40525933 -4 24 C-4.33 24 -4.66 24 -5 24 C-4.54125106 17.43264679 -3.7024581 11.35584356 -2 5 C-2 4.01 -2 3.02 -2 2 C-1.34 2 -0.68 2 0 2 C0 1.34 0 0.68 0 0 Z " fill="#C585AF" transform="translate(197,122)"/>
    <path d="M0 0 C8.59859547 2.26278828 15.80536631 6.45257765 20.35546875 14.16796875 C21 16 21 16 20 19 C18.12328703 16.67645061 16.88867429 14.72725201 15.75 11.9375 C13.37402933 7.94926352 11.32120913 7.46758046 7 6 C7 5.34 7 4.68 7 4 C4.69 3.67 2.38 3.34 0 3 C0 2.01 0 1.02 0 0 Z " fill="#F5D2C8" transform="translate(161,65)"/>
    <path d="M0 0 C0 0.66 0 1.32 0 2 C0.66 2.33 1.32 2.66 2 3 C1.01 3 0.02 3 -1 3 C-1 3.99 -1 4.98 -1 6 C-4.96 7.98 -4.96 7.98 -9 10 C-9.99 9.34 -10.98 8.68 -12 8 C-10.68 8 -9.36 8 -8 8 C-8.33 6.02 -8.66 4.04 -9 2 C-5.62902617 0.50178941 -3.79557881 0 0 0 Z " fill="#8439B3" transform="translate(169,176)"/>
    <path d="M0 0 C0.33 0.99 0.66 1.98 1 3 C3.01508358 3.73323796 3.01508358 3.73323796 5 4 C5.103125 5.093125 5.20625 6.18625 5.3125 7.3125 C6.02079598 11.11154207 6.35364645 11.58376415 9 14 C9 15.32 9 16.64 9 18 C11.31 18.33 13.62 18.66 16 19 C13.35261084 20.4606285 12.10551666 21 9 21 C8.01 18.69 7.02 16.38 6 14 C5.01 14 4.02 14 3 14 C2.67 10.7 2.34 7.4 2 4 C1.34 4 0.68 4 0 4 C0 2.68 0 1.36 0 0 Z " fill="#B636B4" transform="translate(96,150)"/>
    <path d="M0 0 C-0.125 1.875 -0.125 1.875 -1 4 C-2.99054876 4.69437747 -4.99255385 5.35610218 -7 6 C-8.61518701 7.21674011 -8.61518701 7.21674011 -10.125 8.625 C-13 11 -13 11 -17 11 C-17.66 10.67 -18.32 10.34 -19 10 C-4.6 0 -4.6 0 0 0 Z " fill="#EFAAAB" transform="translate(91,64)"/>
    <path d="M0 0 C-3.90552995 7.43087558 -3.90552995 7.43087558 -8.125 9.625 C-11 10 -11 10 -14 8 C-12.68 8 -11.36 8 -10 8 C-9.731875 7.236875 -9.46375 6.47375 -9.1875 5.6875 C-7.02863691 0.80165195 -5.38859138 -0.43691281 0 0 Z " fill="#571CC4" transform="translate(150,158)"/>
    <path d="M0 0 C1.1015625 1.6875 1.1015625 1.6875 2 4 C0.80172061 9.41830683 -1.57953237 14.52677543 -6 18 C-6.33 17.34 -6.66 16.68 -7 16 C-5.92664301 13.23325418 -4.79739939 10.56805742 -3.5625 7.875 C-3.22412109 7.12089844 -2.88574219 6.36679688 -2.53710938 5.58984375 C-1.69839399 3.72340669 -0.85008607 1.8612857 0 0 Z " fill="#9971C7" transform="translate(162,131)"/>
    <path d="M0 0 C0.33 1.32 0.66 2.64 1 4 C4.38018531 5.04005702 7.4780279 5.08004482 11 5 C6.28840397 8.73678306 2.98096662 9.11284843 -3 9 C-2.44271087 5.65626525 -1.64826111 2.96687001 0 0 Z " fill="#DB2E50" transform="translate(102,85)"/>
    <path d="M0 0 C-0.875 5.75 -0.875 5.75 -2 8 C-2.66 8 -3.32 8 -4 8 C-4 7.34 -4 6.68 -4 6 C-6.31 5.67 -8.62 5.34 -11 5 C-7.29318258 1.89428811 -4.9778821 0 0 0 Z " fill="#DE82B1" transform="translate(96,98)"/>
    <path d="M0 0 C6.93 0.495 6.93 0.495 14 1 C14.33 2.65 14.66 4.3 15 6 C9.45949887 5.43174347 4.96284034 3.37113483 0 1 C0 0.67 0 0.34 0 0 Z " fill="#DF7887" transform="translate(137,90)"/>
    <path d="M0 0 C0.66 0 1.32 0 2 0 C2.66 5.61 3.32 11.22 4 17 C1.89172945 13.83759418 1.66182535 12.49342531 1.375 8.8125 C1.30023438 7.91144531 1.22546875 7.01039062 1.1484375 6.08203125 C1.07496094 5.05142578 1.07496094 5.05142578 1 4 C0.01 4.495 0.01 4.495 -1 5 C-1 6.32 -1 7.64 -1 9 C-2.32 9.33 -3.64 9.66 -5 10 C-3.85569823 6.12697862 -2.76679902 2.99736561 0 0 Z " fill="#C26496" transform="translate(72,75)"/>
    <path d="M0 0 C0.66 0.99 1.32 1.98 2 3 C3.66500443 3.34153937 5.33178677 3.67449498 7 4 C8.625 5.4375 8.625 5.4375 10 7 C10.99 7.66 11.98 8.32 13 9 C11.421875 9.71484375 11.421875 9.71484375 9 10 C6.61505544 8.94290501 4.48765933 7.8682111 2.25 6.5625 C1.64800781 6.22412109 1.04601562 5.88574219 0.42578125 5.53710938 C-1.05568065 4.70231735 -2.52870608 3.85258506 -4 3 C-2.68 2.67 -1.36 2.34 0 2 C0 1.34 0 0.68 0 0 Z " fill="#855BB5" transform="translate(78,175)"/>
    <path d="M0 0 C-3.01782683 2.76634126 -5.93596195 3.64353559 -9.89453125 4.52734375 C-12.97059864 5.21788949 -15.97409848 6.11744539 -19 7 C-19.66 6.34 -20.32 5.68 -21 5 C-17.87883314 3.96717589 -14.75255182 2.95080882 -11.625 1.9375 C-10.29082031 1.49567383 -10.29082031 1.49567383 -8.9296875 1.04492188 C-8.07890625 0.77099609 -7.228125 0.49707031 -6.3515625 0.21484375 C-5.56604004 -0.04176025 -4.78051758 -0.29836426 -3.97119141 -0.56274414 C-2 -1 -2 -1 0 0 Z " fill="#F0B7B7" transform="translate(122,53)"/>
    <path d="M0 0 C0.99 0.33 1.98 0.66 3 1 C1.02 1.99 1.02 1.99 -1 3 C-0.01 3.33 0.98 3.66 2 4 C1.67 4.99 1.34 5.98 1 7 C0.01 6.67 -0.98 6.34 -2 6 C-2 6.66 -2 7.32 -2 8 C-3.32 8.33 -4.64 8.66 -6 9 C-5.70381606 5.44579276 -5.19662957 4.19662957 -2.625 1.625 C-1.325625 0.820625 -1.325625 0.820625 0 0 Z " fill="#8A3BAD" transform="translate(158,152)"/>
    <path d="M0 0 C4.29 2.31 8.58 4.62 13 7 C13 7.66 13 8.32 13 9 C11.35 8.67 9.7 8.34 8 8 C8 7.34 8 6.68 8 6 C4.95086772 4.98888907 4.95086772 4.98888907 2 6 C1.34 5.67 0.68 5.34 0 5 C0 3.35 0 1.7 0 0 Z " fill="#C262A3" transform="translate(171,106)"/>
    <path d="M0 0 C0.66 0.33 1.32 0.66 2 1 C2 1.99 2 2.98 2 4 C2.99 4.33 3.98 4.66 5 5 C5 5.99 5 6.98 5 8 C3.5164999 7.57742724 2.03823576 7.13643678 0.5625 6.6875 C-0.26121094 6.44386719 -1.08492187 6.20023437 -1.93359375 5.94921875 C-2.61550781 5.63597656 -3.29742187 5.32273437 -4 5 C-4.33 4.01 -4.66 3.02 -5 2 C-2.625 0.9375 -2.625 0.9375 0 0 Z " fill="#DA6370" transform="translate(132,82)"/>
    <path d="M0 0 C-2.58411731 1.72274487 -4.54902656 2.68895522 -7.4375 3.6875 C-8.19933594 3.95949219 -8.96117187 4.23148438 -9.74609375 4.51171875 C-12.21829721 5.04729142 -13.62983284 4.80445309 -16 4 C-14.35 3.67 -12.7 3.34 -11 3 C-11 2.34 -11 1.68 -11 1 C-3.57142857 -1.42857143 -3.57142857 -1.42857143 0 0 Z " fill="#956EBE" transform="translate(139,194)"/>
    <path d="M0 0 C2.64 0.33 5.28 0.66 8 1 C8 1.66 8 2.32 8 3 C4.535 4.485 4.535 4.485 1 6 C1 6.33 1 6.66 1 7 C-0.65 7 -2.3 7 -4 7 C-3.01 6.67 -2.02 6.34 -1 6 C-1 5.01 -1 4.02 -1 3 C-0.34 3 0.32 3 1 3 C0.67 2.01 0.34 1.02 0 0 Z " fill="#E4234C" transform="translate(112,83)"/>
    <path d="M0 0 C-1 2 -1 2 -4.1875 3.125 C-7.63749602 3.91680237 -10.484293 4.1714979 -14 4 C-10.25 2 -10.25 2 -8 2 C-8 1.34 -8 0.68 -8 0 C-5.13822943 -1.43088528 -3.06624227 -0.59991697 0 0 Z " fill="#C135AF" transform="translate(122,165)"/>
    <path d="M0 0 C2.05137315 3.48216283 2.56818592 6.77275657 3.125 10.75 C3.29257813 11.92046875 3.46015625 13.0909375 3.6328125 14.296875 C3.75398438 15.18890625 3.87515625 16.0809375 4 17 C1.27475359 14.39324256 0.03732993 13.07808847 -0.09765625 9.1796875 C-0.08605469 8.08914062 -0.07445313 6.99859375 -0.0625 5.875 C-0.05347656 4.77929688 -0.04445313 3.68359375 -0.03515625 2.5546875 C-0.02355469 1.71164063 -0.01195313 0.86859375 0 0 Z " fill="#B85896" transform="translate(75,92)"/>
    <path d="M0 0 C1.62723299 0.45034123 3.25173664 0.91055354 4.875 1.375 C5.77992188 1.63023438 6.68484375 1.88546875 7.6171875 2.1484375 C10 3 10 3 12 5 C7.74938644 6.41687119 5.28148375 5.19320039 1 4 C0.67 2.68 0.34 1.36 0 0 Z " fill="#F6D1C5" transform="translate(144,57)"/>
    <path d="M0 0 C0.33 0.99 0.66 1.98 1 3 C2.98 3.495 2.98 3.495 5 4 C5 7.63 5 11.26 5 15 C4.34 14.67 3.68 14.34 3 14 C2.5859375 11.71484375 2.5859375 11.71484375 2.375 8.9375 C2.26285156 7.55884766 2.26285156 7.55884766 2.1484375 6.15234375 C2.07496094 5.08693359 2.07496094 5.08693359 2 4 C1.34 4 0.68 4 0 4 C0 2.68 0 1.36 0 0 Z " fill="#A64FB7" transform="translate(96,150)"/>
    <path d="M0 0 C3.77727089 1.81309003 7.37269822 3.9073259 11 6 C11 6.66 11 7.32 11 8 C11.66 8.33 12.32 8.66 13 9 C11.68 9 10.36 9 9 9 C9 8.01 9 7.02 9 6 C6.03 5.01 3.06 4.02 0 3 C0 2.01 0 1.02 0 0 Z " fill="#D06B97" transform="translate(184,115)"/>
    <path d="M0 0 C0.33 0 0.66 0 1 0 C0.67 3.3 0.34 6.6 0 10 C-0.99 10.33 -1.98 10.66 -3 11 C-3.75 9.4375 -3.75 9.4375 -4 7 C-2.86915563 4.49713591 -1.47860484 2.32992278 0 0 Z " fill="#B87CB1" transform="translate(66,85)"/>
    <path d="M0 0 C1.32 0.66 2.64 1.32 4 2 C0.34666857 4.63379708 -2.48521602 6.46884894 -7 7 C-7.33 6.34 -7.66 5.68 -8 5 C-4.91190305 3.23537317 -3.76687864 3 0 3 C0 2.01 0 1.02 0 0 Z " fill="#DC607B" transform="translate(120,83)"/>
    <path d="M0 0 C5.26053037 -0.31563182 8.44573816 0.33409063 13 3 C12.67 3.66 12.34 4.32 12 5 C10.37276701 4.54965877 8.74826336 4.08944646 7.125 3.625 C5.76761719 3.24214844 5.76761719 3.24214844 4.3828125 2.8515625 C2 2 2 2 0 0 Z " fill="#8357B3" transform="translate(95,188)"/>
    <path d="M0 0 C0.66 0 1.32 0 2 0 C2 0.66 2 1.32 2 2 C3.32 2.33 4.64 2.66 6 3 C2.04 4.98 2.04 4.98 -2 7 C-2.99 6.34 -3.98 5.68 -5 5 C-3.68 5 -2.36 5 -1 5 C-0.67 3.35 -0.34 1.7 0 0 Z " fill="#9058B5" transform="translate(162,179)"/>
    <path d="M0 0 C0.66 0 1.32 0 2 0 C2.3125 2.1875 2.3125 2.1875 2 5 C-0.5 7.8125 -0.5 7.8125 -3 10 C-2.25 2.25 -2.25 2.25 0 0 Z " fill="#853CB9" transform="translate(60,136)"/>
    <path d="M0 0 C0.99 0 1.98 0 3 0 C3.66 2.64 4.32 5.28 5 8 C4.01 8.495 4.01 8.495 3 9 C0.125 4.25 0.125 4.25 -1 2 C-0.67 1.34 -0.34 0.68 0 0 Z " fill="#945AC0" transform="translate(164,127)"/>
    <path d="M0 0 C3.91211733 1.15585285 6.8745041 2.35534962 10 5 C8 6 8 6 6.0546875 5.44140625 C5.33539063 5.15136719 4.61609375 4.86132812 3.875 4.5625 C3.15054688 4.27503906 2.42609375 3.98757812 1.6796875 3.69140625 C0.84824219 3.34916016 0.84824219 3.34916016 0 3 C0 2.01 0 1.02 0 0 Z " fill="#610C73" transform="translate(155,98)"/>
    <path d="M0 0 C2.3828125 0.2421875 2.3828125 0.2421875 5.125 0.875 C6.03507813 1.07867187 6.94515625 1.28234375 7.8828125 1.4921875 C8.58148438 1.65976563 9.28015625 1.82734375 10 2 C10 2.66 10 3.32 10 4 C8.02 4 6.04 4 4 4 C4 3.34 4 2.68 4 2 C2.02 2 0.04 2 -2 2 C-1.34 1.34 -0.68 0.68 0 0 Z " fill="#6C3DC9" transform="translate(130,162)"/>
    <path d="M0 0 C0.99 0.66 1.98 1.32 3 2 C1.74194623 6.50802601 0.09592835 9.4912812 -3 13 C-2.17812739 8.61667943 -1.09845718 4.32059823 0 0 Z " fill="#B683B5" transform="translate(185,154)"/>
    <path d="M0 0 C1.95582488 2.93373731 3.56224304 5.78216298 5 9 C4 11 4 11 2 12 C2 10.68 2 9.36 2 8 C1.34 8 0.68 8 0 8 C0 5.36 0 2.72 0 0 Z " fill="#8453A9" transform="translate(87,130)"/>
    <path d="M0 0 C-0.33 2.31 -0.66 4.62 -1 7 C-2.65 6.67 -4.3 6.34 -6 6 C-3.84615385 0 -3.84615385 0 0 0 Z " fill="#A24FA8" transform="translate(183,160)"/>
    <path d="M0 0 C0.33 0.99 0.66 1.98 1 3 C-1.64738916 4.4606285 -2.89448334 5 -6 5 C-6.33 4.01 -6.66 3.02 -7 2 C-4.35261084 0.5393715 -3.10551666 0 0 0 Z " fill="#884DB5" transform="translate(154,186)"/>
    <path d="M0 0 C6.4 0.36923077 6.4 0.36923077 9.4375 3.5625 C9.953125 4.366875 10.46875 5.17125 11 6 C6.49197399 4.74194623 3.5087188 3.09592835 0 0 Z " fill="#F48A9E" transform="translate(173,107)"/>
    <path d="M0 0 C2.475 0.99 2.475 0.99 5 2 C4.67 4.31 4.34 6.62 4 9 C1.3144406 6.3144406 0.93950026 3.62378672 0 0 Z " fill="#7B46A5" transform="translate(155,101)"/>
    <path d="M0 0 C3 1 3 1 4.75 3.875 C6 7 6 7 5 10 C2.35534962 6.8745041 1.15585285 3.91211733 0 0 Z " fill="#ECB0B1" transform="translate(176,74)"/>
    <path d="M0 0 C1.32 0.33 2.64 0.66 4 1 C4.33 2.65 4.66 4.3 5 6 C2.69 5.34 0.38 4.68 -2 4 C-1.34 2.68 -0.68 1.36 0 0 Z " fill="#6D25B8" transform="translate(100,184)"/>
    <path d="M0 0 C3.55780196 0.60990891 6.6828589 1.5783681 10 3 C10 3.33 10 3.66 10 4 C7.03 3.67 4.06 3.34 1 3 C0.67 2.01 0.34 1.02 0 0 Z " fill="#D77FC2" transform="translate(115,161)"/>
    <path d="M0 0 C4.76058041 5.52841596 4.76058041 5.52841596 5 9 C4.34 9.66 3.68 10.32 3 11 C2.67 8.69 2.34 6.38 2 4 C1.34 4 0.68 4 0 4 C0 2.68 0 1.36 0 0 Z " fill="#F1B3B5" transform="translate(182,83)"/>
    <path d="M0 0 C3.63 0.33 7.26 0.66 11 1 C10.01 1.495 10.01 1.495 9 2 C9 2.66 9 3.32 9 4 C6.03 3.01 3.06 2.02 0 1 C0 0.67 0 0.34 0 0 Z " fill="#E78696" transform="translate(137,90)"/>
    <path d="M0 0 C0.33 0.66 0.66 1.32 1 2 C0.67 2.66 0.34 3.32 0 4 C-4.455 3.01 -4.455 3.01 -9 2 C-9 1.67 -9 1.34 -9 1 C-4.545 0.505 -4.545 0.505 0 0 Z " fill="#8759B9" transform="translate(117,192)"/>
    <path d="M0 0 C0.66 0.33 1.32 0.66 2 1 C2 3.64 2 6.28 2 9 C1.67 8.34 1.34 7.68 1 7 C0.34 7 -0.32 7 -1 7 C-0.67 4.69 -0.34 2.38 0 0 Z " fill="#9B45A9" transform="translate(173,152)"/>
    <path d="M0 0 C0.66 1.32 1.32 2.64 2 4 C0.75 6.75 0.75 6.75 -1 9 C-1.66 9 -2.32 9 -3 9 C-2.01 6.03 -1.02 3.06 0 0 Z " fill="#A27FC8" transform="translate(162,131)"/>
    <path d="M0 0 C-0.33 0.99 -0.66 1.98 -1 3 C-4.0625 4.1875 -4.0625 4.1875 -7 5 C-7 3 -7 3 -5.75 1.375 C-4 0 -4 0 0 0 Z " fill="#955EB2" transform="translate(175,176)"/>
    <path d="M0 0 C0.33 0 0.66 0 1 0 C1 2.31 1 4.62 1 7 C1.66 7.33 2.32 7.66 3 8 C2.34 8 1.68 8 1 8 C0.67 8.66 0.34 9.32 0 10 C-1.36952673 7.26094655 -1.12621361 5.02912668 -1 2 C-0.67 1.34 -0.34 0.68 0 0 Z " fill="#AF87C3" transform="translate(52,120)"/>
    <path d="M0 0 C0.53625 0.185625 1.0725 0.37125 1.625 0.5625 C4.61990614 1.11419324 7.03745829 0.60597444 10 0 C4 4 4 4 0 4 C0 2.68 0 1.36 0 0 Z " fill="#F78DA5" transform="translate(78,101)"/>
    <path d="M0 0 C-2.93828597 2.50298434 -5.17902761 3.46930939 -9 4 C-9 3.34 -9 2.68 -9 2 C-5.5647952 -0.29013653 -4.014669 -0.17842973 0 0 Z " fill="#E07C93" transform="translate(113,90)"/>
    <path d="M0 0 C0.66 0.99 1.32 1.98 2 3 C1.01 3.495 1.01 3.495 0 4 C0 5.32 0 6.64 0 8 C-1.32 8.33 -2.64 8.66 -4 9 C-2.94124926 5.59687262 -1.99097846 2.98646769 0 0 Z " fill="#C698BE" transform="translate(71,76)"/>
    <path d="M0 0 C0.66 0.33 1.32 0.66 2 1 C-0.75 3.0625 -0.75 3.0625 -4 5 C-6.203125 4.62109375 -6.203125 4.62109375 -8 4 C-6.71349294 3.30289269 -5.42059335 2.61757124 -4.125 1.9375 C-3.40570313 1.55464844 -2.68640625 1.17179687 -1.9453125 0.77734375 C-1.30335937 0.52082031 -0.66140625 0.26429687 0 0 Z " fill="#F2BDC0" transform="translate(99,59)"/>
    <path d="M0 0 C5.75 1.875 5.75 1.875 8 3 C8 3.66 8 4.32 8 5 C6.35 4.67 4.7 4.34 3 4 C3 3.34 3 2.68 3 2 C2.01 1.67 1.02 1.34 0 1 C0 0.67 0 0.34 0 0 Z " fill="#CE6B94" transform="translate(176,110)"/>
    <path d="M0 0 C2.97 0.33 5.94 0.66 9 1 C9 1.99 9 2.98 9 4 C6.03 3.01 3.06 2.02 0 1 C0 0.67 0 0.34 0 0 Z " fill="#E4949F" transform="translate(128,86)"/>
    </g>
    <g fill="#ffffff"><g transform="translate(60, 7) scale(0.75)"><path d="M0 13.40L6.75 13.40L16.35 30.15L25.70 13.40L32.50 13.40L16.80 41.90L15.85 41.90L0 13.40M13.05 33.50L19.70 33.50L19.70 48.40L13.05 48.40L13.05 33.50ZM42.25 36.60Q42.25 39.50 43.77 41.17Q45.30 42.85 48 42.85Q51.15 42.75 52.92 40.50Q54.70 38.25 54.70 34.85L56.40 34.85Q56.40 39.70 55.05 42.72Q53.70 45.75 51.25 47.17Q48.80 48.60 45.40 48.65Q42.40 48.65 40.23 47.40Q38.05 46.15 36.88 43.82Q35.70 41.50 35.70 38.35L35.70 21.75L42.25 21.75L42.25 36.60M54.70 21.75L61.25 21.75L61.25 48.40L54.70 48.40L54.70 21.75ZM70.55 20.20Q70.55 17.10 71.90 15.05Q73.25 13 75.40 12Q77.55 11 80.05 11Q81.30 11 82.58 11.32Q83.85 11.65 84.95 12.20L83.80 17.15Q83.05 16.85 82.20 16.60Q81.35 16.35 80.50 16.35Q79.60 16.30 78.80 16.67Q78.00 17.05 77.53 17.82Q77.05 18.60 77.05 19.85L77.05 48.40L70.55 48.40L70.55 20.20M67.05 22.75L83.75 22.75L83.75 27.30L67.05 27.30L67.05 22.75ZM105.65 33.05Q105.55 30.95 104.70 29.47Q103.85 28.00 102.33 27.17Q100.80 26.35 98.85 26.35Q96.60 26.35 94.95 27.40Q93.30 28.45 92.38 30.35Q91.45 32.25 91.45 34.75Q91.45 37.50 92.48 39.50Q93.50 41.50 95.30 42.57Q97.10 43.65 99.45 43.65Q103.70 43.65 106.70 40.60L110.15 44.05Q108.15 46.25 105.30 47.45Q102.45 48.65 98.95 48.65Q94.75 48.65 91.68 46.92Q88.60 45.20 86.88 42.17Q85.15 39.15 85.15 35.10Q85.15 31.05 86.88 28.00Q88.60 24.95 91.68 23.25Q94.75 21.55 98.75 21.50Q103.50 21.50 106.43 23.45Q109.35 25.40 110.60 28.92Q111.85 32.45 111.50 37.30L90.50 37.30L90.50 33.05L105.65 33.05ZM117.20 21.75L123.70 21.75L123.70 48.40L117.20 48.40L117.20 21.75M120.40 10.40Q122 10.40 123.05 11.45Q124.10 12.50 124.10 14.10Q124.10 15.65 123.05 16.72Q122 17.80 120.40 17.80Q118.85 17.80 117.80 16.72Q116.75 15.65 116.75 14.10Q116.75 12.50 117.80 11.45Q118.85 10.40 120.40 10.40Z"/></g></g>
</svg>





