<svg width="24" height="24" viewBox="0 0 24 24" fill="white" xmlns="http://www.w3.org/2000/svg">
<path d="M12 0.297C5.37 0.297 0 5.667 0 12.297c0 5.303 3.438 9.8 8.205 11.387.6.113.82-.26.82-.577 0-.285-.01-1.04-.016-2.04-3.338.724-4.042-1.61-4.042-1.61-.546-1.387-1.333-1.756-1.333-1.756-1.09-.745.082-.73.082-.73 1.205.085 1.84 1.237 1.84 1.237 1.07 1.834 2.807 1.304 3.492.997.108-.776.418-1.304.762-1.604-2.665-.304-5.467-1.334-5.467-5.932 0-1.31.468-2.382 1.235-3.222-.123-.303-.535-1.524.117-3.176 0 0 1.008-.322 3.3 1.23.957-.266 1.983-.399 3.003-.404 1.02.005 2.047.138 3.006.404 2.29-1.552 3.297-1.23 3.297-1.23.654 1.653.242 2.874.12 3.176.77.84 1.233 1.912 1.233 3.222 0 4.61-2.807 5.625-5.48 5.921.43.37.815 1.102.815 2.222 0 1.604-.014 2.896-.014 3.287 0 .32.216.694.825.576C20.565 22.092 24 17.592 24 12.297c0-6.63-5.373-12-12-12z"/>
</svg>